<svg id="Layer_1" data-name="Layer 1" xmlns="http://www.w3.org/2000/svg" xmlns:xlink="http://www.w3.org/1999/xlink" viewBox="0 0 991.32 991.8"><defs><style>.cls-1,.cls-2,.cls-3{stroke:#253849;stroke-miterlimit:10;}.cls-1,.cls-2{stroke-width:21.84px;}.cls-1{fill:url(#linear-gradient);}.cls-2,.cls-7{fill:#fff;}.cls-3{stroke-width:25.86px;fill:url(#linear-gradient-2);}.cls-4{fill:#253849;}.cls-5{fill:url(#BLUE_GRADIENT);}.cls-6{fill:#dfdfdd;}.cls-8{fill:url(#Red_Orange);}</style><linearGradient id="linear-gradient" x1="260.64" y1="354.79" x2="986" y2="354.79" gradientUnits="userSpaceOnUse"><stop offset="0" stop-color="#e89d43"/><stop offset="0.24" stop-color="#e89a43"/><stop offset="0.42" stop-color="#e69142"/><stop offset="0.57" stop-color="#e48042"/><stop offset="0.72" stop-color="#e16a40"/><stop offset="0.86" stop-color="#dd4d3f"/><stop offset="0.99" stop-color="#d7293d"/><stop offset="1" stop-color="#d7263d"/></linearGradient><linearGradient id="linear-gradient-2" x1="18.53" y1="753.42" x2="725.94" y2="753.42" gradientUnits="userSpaceOnUse"><stop offset="0" stop-color="#e89d43"/><stop offset="0.09" stop-color="#e48242"/><stop offset="0.23" stop-color="#df6140"/><stop offset="0.37" stop-color="#dc473f"/><stop offset="0.51" stop-color="#d9353e"/><stop offset="0.66" stop-color="#d82a3d"/><stop offset="0.82" stop-color="#d7263d"/></linearGradient><linearGradient id="BLUE_GRADIENT" x1="440.63" y1="674.96" x2="607.43" y2="674.96" gradientUnits="userSpaceOnUse"><stop offset="0.08" stop-color="#55c9fc"/><stop offset="0.55" stop-color="#0095da"/></linearGradient><linearGradient id="Red_Orange" x1="5.6" y1="863.32" x2="54.39" y2="863.32" gradientUnits="userSpaceOnUse"><stop offset="0" stop-color="#f37e5f"/><stop offset="0.5" stop-color="#ec1c24"/><stop offset="1" stop-color="#cf232a"/></linearGradient></defs><path class="cls-1" d="M261.12,510.59V457.86a3.94,3.94,0,0,1,.08-1l30.31-148.48a4.67,4.67,0,0,1,9.16,0l30.47,145.27a4.64,4.64,0,0,0,4.58,3.69h72.84a4.66,4.66,0,0,0,4.66-4.66V95.37a3.89,3.89,0,0,1,.08-1L428.58,23a4.68,4.68,0,0,1,9.16.08l13.83,69.06a4.73,4.73,0,0,0,4.66,3.78l66.4-1a4.64,4.64,0,0,0,4.5-3.62l16.8-71.14a4.71,4.71,0,0,1,9.17,0l17.52,74.12a5.42,5.42,0,0,1,.17,1.12l-1.93,292.63a4.68,4.68,0,0,0,8.84,2.17L621.59,305a4.72,4.72,0,0,1,8.36,0l42.85,84.9a4.67,4.67,0,0,0,8.84-2.18l-1.93-292.3a4.56,4.56,0,0,1,.08-1l16.56-73.64a4.72,4.72,0,0,1,9.17-.08l16.64,70.66a4.73,4.73,0,0,0,4.58,3.62h66.4a4.67,4.67,0,0,0,4.59-3.78l13.5-70.42a4.71,4.71,0,0,1,9.25,0l14.31,74.92a3.39,3.39,0,0,1,.08.89V452.71a4.66,4.66,0,0,0,4.66,4.66h72.83a4.65,4.65,0,0,0,4.58-3.77l29.51-145c1-5,8.2-5,9.16,0l30.31,148.24a3.94,3.94,0,0,1,.08,1V688.34a4.66,4.66,0,0,1-4.66,4.66h-716a4.66,4.66,0,0,1-4.66-4.66Z" transform="translate(-5.59 -5.67)"/><path class="cls-2" d="M614.2,485h17.68a41,41,0,0,1,41,41V686.81H573.2V526A41,41,0,0,1,614.2,485Z" transform="translate(-5.59 -5.67)"/><path class="cls-2" d="M761.31,163.46h0a16.13,16.13,0,0,1,16.08,16.08V309H745.23V179.54A16.13,16.13,0,0,1,761.31,163.46Z" transform="translate(-5.59 -5.67)"/><path class="cls-2" d="M489.59,163.46h0a16.13,16.13,0,0,1,16.08,16.08V309H473.51V179.54A16.13,16.13,0,0,1,489.59,163.46Z" transform="translate(-5.59 -5.67)"/><g id="Flat"><path class="cls-3" d="M55.12,558.28h456a48.74,48.74,0,0,1,44.69,29.22l72.55,166,73.82,27.69a36.56,36.56,0,0,1,23.79,34.25v121a12.19,12.19,0,0,1-12.19,12.19h-683a12.19,12.19,0,0,1-12.19-12.19V594.86A36.59,36.59,0,0,1,55.12,558.28Z" transform="translate(-5.59 -5.67)"/><path class="cls-4" d="M726,936.49V887.71H18.63v48.78a12.2,12.2,0,0,0,12.2,12.2h683A12.21,12.21,0,0,0,726,936.49Z" transform="translate(-5.59 -5.67)"/><path class="cls-5" d="M440.63,614a12.2,12.2,0,0,1,12.2-12.2h94.48l59.5,136a7.78,7.78,0,0,1,.62,3h0a7.43,7.43,0,0,1-7.43,7.43H452.83a12.22,12.22,0,0,1-12.2-12.23V614Z" transform="translate(-5.59 -5.67)"/><path class="cls-6" d="M739,838.93H690.17A12.2,12.2,0,0,0,678,851.12v24.4a12.19,12.19,0,0,0,12.16,12.19h48.81Z" transform="translate(-5.59 -5.67)"/><path class="cls-7" d="M6.21,602H372.12V589.87H6.21Z" transform="translate(-5.59 -5.67)"/><circle class="cls-4" cx="549.68" cy="918.62" r="73.17"/><circle class="cls-4" cx="159.39" cy="918.62" r="73.17"/><circle class="cls-7" cx="549.68" cy="918.62" r="24.39"/><circle class="cls-7" cx="159.39" cy="918.62" r="24.39"/><path class="cls-7" d="M460.93,806.94h0A8.07,8.07,0,0,0,469,815h16.16a8.08,8.08,0,0,0,8.07-8.07h0a8.09,8.09,0,0,0-8.07-8.09H469A8.09,8.09,0,0,0,460.93,806.94Z" transform="translate(-5.59 -5.67)"/><path class="cls-7" d="M412.46,798.85a8.09,8.09,0,0,0-8.08,8.1h0a8.08,8.08,0,0,0,8.09,8.06h16.18a8.07,8.07,0,0,0,8.08-8.07h0a8.1,8.1,0,0,0-8.08-8.09H412.46Z" transform="translate(-5.59 -5.67)"/><path class="cls-8" d="M42.2,887.71a12.19,12.19,0,0,0,12.19-12.19V851.09A12.19,12.19,0,0,0,42.2,838.93H5.6v48.78Z" transform="translate(-5.59 -5.67)"/><path class="cls-7" d="M6.21,634.36H170.07V624.11H6.21Z" transform="translate(-5.59 -5.67)"/></g></svg>