<svg id="Layer_1" data-name="Layer 1" xmlns="http://www.w3.org/2000/svg" xmlns:xlink="http://www.w3.org/1999/xlink" viewBox="0 0 981.02 857.12"><defs><style>.cls-1{fill:#fff;}.cls-2{fill:url(#linear-gradient);}.cls-3{fill:#253849;}.cls-4{fill:#d7263d;}.cls-5{fill:#55c9fc;}.cls-6{fill:url(#BLUE_GRADIENT);}.cls-7{fill:#e89d43;}</style><linearGradient id="linear-gradient" x1="76.54" y1="499.62" x2="976.65" y2="499.62" gradientUnits="userSpaceOnUse"><stop offset="0.01" stop-color="#e89d43"/><stop offset="0.45" stop-color="#d7263d"/></linearGradient><linearGradient id="BLUE_GRADIENT" x1="273.59" y1="261.15" x2="502.16" y2="261.15" gradientUnits="userSpaceOnUse"><stop offset="0.08" stop-color="#55c9fc"/><stop offset="0.55" stop-color="#0095da"/></linearGradient></defs><path class="cls-1" d="M93.74,751h490.5c36.12,0,65.4,29,65.4,64.68V848c0,35.72-29.28,64.68-65.4,64.68H93.74c-36.12,0-65.4-29-65.4-64.68V815.65C28.33,779.93,57.61,751,93.74,751Z" transform="translate(-11.98 -71.74)"/><rect class="cls-1" x="98.1" y="517.51" width="474.16" height="161.72"/><path class="cls-2" d="M734.18,330.49,585.39,477.82l1.68,1.66c-24.81-15.26-54.55-22.89-84.58-19.62V382.42c1.36-6.73-125-278.44-126.48-284.9C381.24,82,188.61,87.08,94.69,88.43l-6.15.09h0a15.46,15.46,0,0,0-11.13,15.57V540.72c-1.36,25.4,18.3,47.11,44,48.52h37.77V751H142.79c-36.13,0-65.4,29-65.4,64.69-4.73,48,9.33,95,65.4,97H649.64c36.12,0,65.4-29,65.4-64.68,4.73-48-9.35-95-65.4-97V589.24a119.65,119.65,0,0,0-18.26-65.93l.11.11L761.31,395.18H911.24v291.1L764.09,912.68H911.24c34.92.72,66.08-29.72,65.4-64.68V330.49ZM502.49,589.24H486.15a16.26,16.26,0,0,0,16.34-16.17Z" transform="translate(-11.98 -71.74)"/><path class="cls-3" d="M649.64,767.14H110.08a16.47,16.47,0,0,1-11.56-4.74A16.11,16.11,0,0,1,93.73,751V589.24a16.05,16.05,0,0,1,4.79-11.43,16.43,16.43,0,0,1,11.56-4.74H649.64a16.44,16.44,0,0,1,11.57,4.74A16.08,16.08,0,0,1,666,589.24V751a16.06,16.06,0,0,1-4.78,11.44A16.48,16.48,0,0,1,649.64,767.14ZM126.43,734.79H633.29V605.42H126.43Z" transform="translate(-11.98 -71.74)"/><path class="cls-1" d="M119.79,589.24H70.74c-25.68-1.41-45.35-23.11-44-48.51V104.08A15.47,15.47,0,0,1,41.47,87.91H90.52a15.48,15.48,0,0,0-14.71,16.17V540.73c-1.37,25.4,18.3,47.1,44,48.51Z" transform="translate(-11.98 -71.74)"/><path class="cls-4" d="M486.14,605.42H77.38c-31.93.1-59.23-22.7-64.49-53.86a16.06,16.06,0,0,1,5.72-15.15,16.48,16.48,0,0,1,16.12-2.69,16.21,16.21,0,0,1,10.42,12.47,32.43,32.43,0,0,0,32.24,26.88H486.14V395.18H289.94a32.56,32.56,0,0,1-32.7-32.35V168.77a32.55,32.55,0,0,1,32.7-32.34H375.5L361,104l-316.3.08v32.35H191.84a32.56,32.56,0,0,1,32.7,32.34V362.84a32.56,32.56,0,0,1-32.7,32.34H44.68v24.26a16.35,16.35,0,0,1-32.7,0V379a16.07,16.07,0,0,1,4.79-11.44,16.48,16.48,0,0,1,11.57-4.74h163.5V168.77H28.33A16.43,16.43,0,0,1,16.77,164,16.05,16.05,0,0,1,12,152.6V104.08a32.56,32.56,0,0,1,32.7-32.34H361.06a32.67,32.67,0,0,1,29.82,19.14L415.58,146a16,16,0,0,1-1.25,15.38,16.39,16.39,0,0,1-13.7,7.35H289.94V362.83H502.16a16.31,16.31,0,0,1,16.19,13.84,40.65,40.65,0,0,1,.49,5.73V573.07A32.56,32.56,0,0,1,486.14,605.42Z" transform="translate(-11.98 -71.74)"/><path class="cls-4" d="M28.33,500.3a16.31,16.31,0,0,1-11.61-4.69,19.07,19.07,0,0,1-3.44-5.34,16.07,16.07,0,0,1-1.3-6.15,16.87,16.87,0,0,1,4.74-11.48,18.8,18.8,0,0,1,5.39-3.39,16.44,16.44,0,0,1,17.83,3.39,16.87,16.87,0,0,1,4.74,11.48,16.07,16.07,0,0,1-1.3,6.15,19.07,19.07,0,0,1-3.44,5.34,16.3,16.3,0,0,1-11.61,4.69Z" transform="translate(-11.98 -71.74)"/><path class="cls-3" d="M486.14,605.42H77.38c-31.93.1-59.23-22.7-64.49-53.86a16.06,16.06,0,0,1,5.72-15.15,16.48,16.48,0,0,1,16.12-2.69,16.21,16.21,0,0,1,10.42,12.47,32.43,32.43,0,0,0,32.24,26.88H486.14V395.18H289.94a32.56,32.56,0,0,1-32.7-32.35V168.77a32.55,32.55,0,0,1,32.7-32.34H375.5L361,104l-316.3.08v32.35H191.84a32.56,32.56,0,0,1,32.7,32.34V362.84a32.56,32.56,0,0,1-32.7,32.34H44.68v24.26a16.35,16.35,0,0,1-32.7,0V379a16.07,16.07,0,0,1,4.79-11.44,16.48,16.48,0,0,1,11.57-4.74h163.5V168.77H28.33A16.43,16.43,0,0,1,16.77,164,16.05,16.05,0,0,1,12,152.6V104.08a32.56,32.56,0,0,1,32.7-32.34H361.06a32.67,32.67,0,0,1,29.82,19.14L415.58,146a16,16,0,0,1-1.25,15.38,16.39,16.39,0,0,1-13.7,7.35H289.94V362.83H502.16a16.31,16.31,0,0,1,16.19,13.84,40.65,40.65,0,0,1,.49,5.73V573.07A32.56,32.56,0,0,1,486.14,605.42Z" transform="translate(-11.98 -71.74)"/><path class="cls-3" d="M28.33,500.3a16.31,16.31,0,0,1-11.61-4.69,19.07,19.07,0,0,1-3.44-5.34,16.07,16.07,0,0,1-1.3-6.15,16.87,16.87,0,0,1,4.74-11.48,18.8,18.8,0,0,1,5.39-3.39,16.44,16.44,0,0,1,17.83,3.39,16.87,16.87,0,0,1,4.74,11.48,16.07,16.07,0,0,1-1.3,6.15,19.07,19.07,0,0,1-3.44,5.34,16.3,16.3,0,0,1-11.61,4.69Z" transform="translate(-11.98 -71.74)"/><path class="cls-5" d="M208.19,164.12V358.18c0,8.9-4.68,16.18-10.4,16.18H154.08c-1.37,2.86-3.2,4.65-5.23,4.65H74.23V152.6h19.5V148H197.79C203.51,148,208.19,155.22,208.19,164.12Z" transform="translate(-11.98 -71.74)"/><path class="cls-6" d="M502.16,374.36H289.93a16.33,16.33,0,0,1-16.34-16.18V164.12a16.09,16.09,0,0,1,1.41-6.54A16.4,16.4,0,0,1,289.93,148H400.79L501,371.29A20.58,20.58,0,0,1,502.16,374.36Z" transform="translate(-11.98 -71.74)"/><path class="cls-3" d="M191.84,395.18H28.33a16.43,16.43,0,0,1-11.56-4.74A16.05,16.05,0,0,1,12,379V152.6a16.09,16.09,0,0,1,4.79-11.44,16.46,16.46,0,0,1,11.56-4.73h163.5a32.56,32.56,0,0,1,32.71,32.34V362.83a32.56,32.56,0,0,1-32.7,32.35ZM44.68,362.84H191.84v-194l-147.16,0Z" transform="translate(-11.98 -71.74)"/><path class="cls-3" d="M502.16,395.18H289.94a32.56,32.56,0,0,1-32.7-32.35V168.77a32.55,32.55,0,0,1,32.7-32.34H400.8A16.36,16.36,0,0,1,415.74,146L516,369.39a33.64,33.64,0,0,1,1.58,4.12,16.53,16.53,0,0,1-15.39,21.67ZM289.94,168.77V362.84H477.19l-87-194.07Z" transform="translate(-11.98 -71.74)"/><path class="cls-3" d="M502.49,395.18h-.33a16.36,16.36,0,1,1,.33,0Z" transform="translate(-11.98 -71.74)"/><ellipse class="cls-7" cx="114.45" cy="760.09" rx="32.7" ry="32.34"/><ellipse class="cls-7" cx="604.96" cy="760.09" rx="32.7" ry="32.34"/><path class="cls-3" d="M126.43,880.34c-27.08,0-49.05-21.72-49.05-48.52s22-48.51,49.05-48.51,49.06,21.72,49.06,48.51-22,48.49-49.06,48.52Zm0-64.69a16.18,16.18,0,1,0,16.35,16.17,16.26,16.26,0,0,0-16.35-16.17Z" transform="translate(-11.98 -71.74)"/><path class="cls-3" d="M616.94,880.34c-27.09,0-49.05-21.72-49.05-48.52s22-48.51,49.05-48.51,49,21.72,49,48.51-22,48.49-49,48.52Zm0-64.69a16.18,16.18,0,1,0,16.35,16.17,16.26,16.26,0,0,0-16.35-16.17Z" transform="translate(-11.98 -71.74)"/><path class="cls-3" d="M437.09,767.14H273.59A16.44,16.44,0,0,1,262,762.4,16.07,16.07,0,0,1,257.24,751V589.24A16,16,0,0,1,262,577.81a16.39,16.39,0,0,1,11.56-4.74h163.5a16.39,16.39,0,0,1,11.56,4.74,16.05,16.05,0,0,1,4.79,11.43V751a16.07,16.07,0,0,1-4.79,11.44A16.44,16.44,0,0,1,437.09,767.14ZM289.94,734.79h130.8V605.42H289.94Z" transform="translate(-11.98 -71.74)"/><path class="cls-3" d="M240.89,443.7A16.48,16.48,0,0,1,229.32,439a16.1,16.1,0,0,1-4.78-11.44V411.35a16.35,16.35,0,0,1,32.69,0v16.17A16.06,16.06,0,0,1,252.45,439a16.47,16.47,0,0,1-11.56,4.74Z" transform="translate(-11.98 -71.74)"/><path class="cls-3" d="M240.89,524.56a16.48,16.48,0,0,1-11.57-4.74,16.1,16.1,0,0,1-4.78-11.44V492.21a16.35,16.35,0,0,1,32.69,0v16.17a16.06,16.06,0,0,1-4.78,11.44,16.47,16.47,0,0,1-11.56,4.74Z" transform="translate(-11.98 -71.74)"/><path class="cls-3" d="M240.89,605.42a16.44,16.44,0,0,1-11.57-4.74,16.1,16.1,0,0,1-4.78-11.44V573.07a16.35,16.35,0,0,1,32.69,0v16.17a16.06,16.06,0,0,1-4.78,11.44,16.47,16.47,0,0,1-11.56,4.74Z" transform="translate(-11.98 -71.74)"/><path class="cls-3" d="M649.64,605.42H502.49a16.39,16.39,0,0,1-11.56-4.74,16.07,16.07,0,0,1-4.79-11.44V459.87a16.07,16.07,0,0,1,4.79-11.44,16.44,16.44,0,0,1,11.56-4.74h16.35c81.23.09,147.06,65.2,147.15,145.55a16.09,16.09,0,0,1-4.79,11.44,16.44,16.44,0,0,1-11.56,4.74Zm-130.8-32.35H632.13c-8.21-55.66-56.42-97-113.29-97Z" transform="translate(-11.98 -71.74)"/><path class="cls-3" d="M911.24,928.86H764.09a16.36,16.36,0,0,1-14.35-8.43,16,16,0,0,1,.6-16.49L897.49,677.53a16.4,16.4,0,0,1,13.75-7.43h65.4a16.44,16.44,0,0,1,11.57,4.74A16.11,16.11,0,0,1,993,686.28V848C992.94,892.63,956.37,928.81,911.24,928.86ZM794,896.51h117.2c27.08,0,49-21.73,49.06-48.51V702.45H920.17Z" transform="translate(-11.98 -71.74)"/><path class="cls-3" d="M976.65,702.45h-65.4a16.44,16.44,0,0,1-11.57-4.74,16.08,16.08,0,0,1-4.78-11.43V411.35H768.09l-125,123.52a16.48,16.48,0,0,1-23.09-.06A16,16,0,0,1,620,512L749.76,383.73A16.5,16.5,0,0,1,761.32,379H911.25a16.42,16.42,0,0,1,11.56,4.73,16.07,16.07,0,0,1,4.79,11.44V670.1h32.7V346.66H741L597,489.26a16.48,16.48,0,0,1-23.06-.06,16,16,0,0,1-.07-22.81L722.6,319.06a16.48,16.48,0,0,1,11.57-4.74H976.65a16.43,16.43,0,0,1,11.56,4.74A16.06,16.06,0,0,1,993,330.5V686.28a16.09,16.09,0,0,1-4.79,11.44A16.46,16.46,0,0,1,976.65,702.45Z" transform="translate(-11.98 -71.74)"/><path class="cls-3" d="M911.24,411.35a16.35,16.35,0,0,1-15.1-10,16,16,0,0,1,3.55-17.62l65.4-64.69a16.47,16.47,0,0,1,23,.1,16.05,16.05,0,0,1,.1,22.77l-65.4,64.68a16.35,16.35,0,0,1-11.56,4.74Z" transform="translate(-11.98 -71.74)"/><path class="cls-3" d="M764.11,411.35a16.39,16.39,0,0,1-14.65-9l-31.72-62.91a16.1,16.1,0,0,1,7.38-21.6A16.46,16.46,0,0,1,747,325.06L778.73,388a16,16,0,0,1,.87,12.35,16.36,16.36,0,0,1-15.49,11Z" transform="translate(-11.98 -71.74)"/><path class="cls-3" d="M437.09,653.93H273.59a16.17,16.17,0,1,1,0-32.34h163.5a16.17,16.17,0,1,1,0,32.34Z" transform="translate(-11.98 -71.74)"/><path class="cls-3" d="M437.09,718.62H273.59a16.17,16.17,0,1,1,0-32.34h163.5a16.17,16.17,0,1,1,0,32.34Z" transform="translate(-11.98 -71.74)"/><path class="cls-3" d="M93.74,249.63a16.35,16.35,0,0,1-15.11-10A16,16,0,0,1,82.18,222l16.35-16.18a16.47,16.47,0,0,1,23,.11,16,16,0,0,1,.1,22.76l-16.35,16.17a16.35,16.35,0,0,1-11.55,4.74Z" transform="translate(-11.98 -71.74)"/><path class="cls-3" d="M93.74,330.49a16.35,16.35,0,0,1-15.11-10,16,16,0,0,1,3.55-17.62l49-48.52a16.47,16.47,0,0,1,23,.1,16.05,16.05,0,0,1,.11,22.77l-49.06,48.51a16.35,16.35,0,0,1-11.55,4.74Z" transform="translate(-11.98 -71.74)"/><path class="cls-3" d="M649.64,928.86H93.74C48.61,928.81,12,892.63,12,848V815.65C12,771,48.61,734.85,93.74,734.79h555.9c45.13.06,81.7,36.23,81.75,80.86V848c0,44.63-36.62,80.81-81.75,80.86ZM93.74,767.14c-27.08,0-49,21.73-49.06,48.51V848c0,26.78,22,48.49,49.06,48.51h555.9c27.08,0,49-21.73,49.05-48.51V815.65c0-26.78-22-48.48-49.05-48.51Z" transform="translate(-11.98 -71.74)"/></svg>