<svg id="Layer_1" data-name="Layer 1" xmlns="http://www.w3.org/2000/svg" xmlns:xlink="http://www.w3.org/1999/xlink" viewBox="0 0 980.1 982.86"><defs><style>.cls-1{fill:#eae8e5;}.cls-2{fill:url(#linear-gradient);}.cls-3{fill:url(#linear-gradient-2);}.cls-4{fill:url(#linear-gradient-3);}.cls-5{fill:url(#linear-gradient-4);}.cls-6{fill:url(#linear-gradient-5);}.cls-7{fill:url(#linear-gradient-6);}.cls-8{fill:url(#linear-gradient-7);}.cls-9{fill:url(#linear-gradient-8);}.cls-10{fill:#253849;}</style><linearGradient id="linear-gradient" x1="255.93" y1="813.01" x2="434.88" y2="813.01" gradientUnits="userSpaceOnUse"><stop offset="0" stop-color="#e89d43"/><stop offset="0.4" stop-color="#e06840"/><stop offset="0.8" stop-color="#da383e"/><stop offset="1" stop-color="#d7263d"/></linearGradient><linearGradient id="linear-gradient-2" x1="613.83" y1="829.28" x2="841.59" y2="829.28" xlink:href="#linear-gradient"/><linearGradient id="linear-gradient-3" x1="565.03" y1="837.41" x2="630.1" y2="837.41" xlink:href="#linear-gradient"/><linearGradient id="linear-gradient-4" x1="695.17" y1="837.41" x2="760.25" y2="837.41" xlink:href="#linear-gradient"/><linearGradient id="linear-gradient-5" x1="825.32" y1="837.41" x2="890.39" y2="837.41" xlink:href="#linear-gradient"/><linearGradient id="linear-gradient-6" x1="402.35" y1="406.31" x2="597.56" y2="406.31" gradientUnits="userSpaceOnUse"><stop offset="0.44" stop-color="#55c9fc"/><stop offset="1" stop-color="#0095da"/></linearGradient><linearGradient id="linear-gradient-7" x1="28.18" y1="726.65" x2="190.86" y2="726.65" gradientUnits="userSpaceOnUse"><stop offset="0" stop-color="#64c08a"/><stop offset="0.25" stop-color="#57c06f"/><stop offset="0.58" stop-color="#49bf4f"/><stop offset="0.77" stop-color="#43bf43"/></linearGradient><linearGradient id="linear-gradient-8" x1="26.18" y1="213.02" x2="973.73" y2="213.02" xlink:href="#linear-gradient"/></defs><path class="cls-1" d="M500,104,109.52,369.05V975.69H890.39V369.05Z" transform="translate(-9.9 -9.1)"/><path class="cls-2" d="M255.93,650.33h179V975.69H255.93Z" transform="translate(-9.9 -9.1)"/><path class="cls-3" d="M613.83,796.74H841.59v65.07H613.83Z" transform="translate(-9.9 -9.1)"/><path class="cls-4" d="M565,975.69V747.94l32.53-48.81,32.54,48.81V975.69Z" transform="translate(-9.9 -9.1)"/><path class="cls-5" d="M695.17,975.69V747.94l32.54-48.81,32.54,48.81V975.69Z" transform="translate(-9.9 -9.1)"/><path class="cls-6" d="M825.32,975.69V747.94l32.53-48.81,32.54,48.81V975.69Z" transform="translate(-9.9 -9.1)"/><path class="cls-7" d="M548.76,503.91H451.15a48.79,48.79,0,0,1-48.8-48.8V357.5a48.8,48.8,0,0,1,48.8-48.8h97.61a48.8,48.8,0,0,1,48.8,48.8v97.61A48.79,48.79,0,0,1,548.76,503.91Z" transform="translate(-9.9 -9.1)"/><path class="cls-8" d="M190.86,780.47c0,58.41-36.42,97.61-81.34,97.61s-81.34-39.2-81.34-97.61c0-38.13,34.67-130.47,58.74-190,8.24-20.35,37-20.35,45.21,0C156.19,650,190.86,742.34,190.86,780.47Z" transform="translate(-9.9 -9.1)"/><path class="cls-9" d="M937.19,400.69,500,104,62.72,400.69,26.18,346.85,500,25.36,973.73,346.85Z" transform="translate(-9.9 -9.1)"/><path class="cls-10" d="M906.66,399.64l21.39,14.52a16.29,16.29,0,0,0,9.14,2.82,16.68,16.68,0,0,0,3.06-.29,16.31,16.31,0,0,0,10.4-6.85L987.19,356a16.26,16.26,0,0,0-4.33-22.59L509.1,11.9a16.28,16.28,0,0,0-18.27,0L17,333.39A16.27,16.27,0,0,0,12.71,356l36.54,53.86a16.25,16.25,0,0,0,22.59,4.33l21.41-14.54V562.4a40.46,40.46,0,0,0-21.41,22C44.5,652,11.91,740.84,11.91,780.47c0,58.41,34,103.76,81.34,112.3v66.65H11.91V992H988V959.42H906.66ZM67,378.11,48.78,351.16,500,45,951.14,351.16,932.87,378.1,509.1,90.54a16.29,16.29,0,0,0-18.29,0ZM44.45,780.47c0-26.43,21-93.46,57.54-183.89a8.11,8.11,0,0,1,15.06,0C153.62,687,174.59,754,174.59,780.47c0,47.13-27.38,81.34-65.07,81.34S44.45,827.6,44.45,780.47Zm81.34,112.3c47.34-8.54,81.34-53.89,81.34-112.3,0-39.63-32.59-128.48-59.93-196.09a40.46,40.46,0,0,0-21.41-22V377.56L500,123.66l374.16,253.9V694.22l-2.73-4.1c-6-9.06-21-9.06-27.07,0l-32.54,48.8a16.32,16.32,0,0,0-2.73,9v32.53H776.51V747.94a16.38,16.38,0,0,0-2.73-9L741.24,690.1c-6-9.06-21-9.06-27.07,0l-32.53,48.81a16.31,16.31,0,0,0-2.74,9v32.53H646.37V747.94a16.38,16.38,0,0,0-2.73-9L611.1,690.1c-6-9.06-21-9.06-27.07,0l-32.54,48.81a16.38,16.38,0,0,0-2.73,9V959.42H451.15V650.33a16.25,16.25,0,0,0-16.27-16.27H255.93a16.25,16.25,0,0,0-16.26,16.27V959.42H125.79Zm488,66.65H581.3V752.87l16.26-24.41,16.27,24.41ZM646.37,813H678.9v32.54H646.37Zm0,65.07H678.9v81.34H646.37ZM744,959.42H711.44V752.87l16.27-24.41L744,752.87ZM776.51,813h32.54v32.54H776.51Zm0,65.07h32.54v81.34H776.51Zm-357.9,81.34H272.2V666.6H418.61Zm423,0V752.87l16.26-24.41,16.27,24.41V959.42Z" transform="translate(-9.9 -9.1)"/><path class="cls-10" d="M451.15,520.18h97.61a65.13,65.13,0,0,0,65.07-65.07V357.5a65.13,65.13,0,0,0-65.07-65.07H451.15a65.13,65.13,0,0,0-65.07,65.07v97.61A65.13,65.13,0,0,0,451.15,520.18Zm-32.54-65.07V422.57h65.08v65.08H451.15A32.58,32.58,0,0,1,418.61,455.11Zm130.15,32.54H516.22V422.57H581.3v32.54A32.58,32.58,0,0,1,548.76,487.65ZM581.3,357.5V390H516.22V325h32.54A32.57,32.57,0,0,1,581.3,357.5ZM451.15,325h32.54V390H418.61V357.5A32.57,32.57,0,0,1,451.15,325Z" transform="translate(-9.9 -9.1)"/><path class="cls-10" d="M353.54,796.74h32.54v32.54H353.54Z" transform="translate(-9.9 -9.1)"/></svg>