<svg id="Layer_1" data-name="Layer 1" xmlns="http://www.w3.org/2000/svg" xmlns:xlink="http://www.w3.org/1999/xlink" viewBox="0 0 993.99 995.33"><defs><style>.cls-1{fill:url(#linear-gradient);}.cls-2{fill:url(#linear-gradient-2);}.cls-3{fill:url(#linear-gradient-3);}.cls-4{fill:url(#linear-gradient-4);}.cls-5{fill:url(#linear-gradient-5);}.cls-6{fill:#253849;}.cls-7{fill:#fff;}.cls-8{fill:url(#linear-gradient-6);}.cls-9{fill:#d7263d;}.cls-10{fill:#55c9fc;}.cls-11{fill:url(#BLUE_GRADIENT);}.cls-12{fill:#e89d43;}</style><linearGradient id="linear-gradient" x1="68.73" y1="353.25" x2="591.71" y2="353.25" gradientUnits="userSpaceOnUse"><stop offset="0.01" stop-color="#feede5"/><stop offset="0.91" stop-color="#fde1d4"/><stop offset="1" stop-color="#fbc8b4"/></linearGradient><linearGradient id="linear-gradient-2" x1="166.79" y1="534.21" x2="286.64" y2="534.21" gradientUnits="userSpaceOnUse"><stop offset="0" stop-color="#e89d43"/><stop offset="0.4" stop-color="#e06840"/><stop offset="0.8" stop-color="#da383e"/><stop offset="1" stop-color="#d7263d"/></linearGradient><linearGradient id="linear-gradient-3" x1="264.85" y1="264.8" x2="395.59" y2="264.8" gradientUnits="userSpaceOnUse"><stop offset="0.44" stop-color="#55c9fc"/><stop offset="1" stop-color="#0095da"/></linearGradient><linearGradient id="linear-gradient-4" x1="112.44" y1="477" x2="34.14" y2="477" gradientUnits="userSpaceOnUse"><stop offset="0" stop-color="#64c08a"/><stop offset="0.25" stop-color="#57c06f"/><stop offset="0.58" stop-color="#49bf4f"/><stop offset="0.77" stop-color="#43bf43"/></linearGradient><linearGradient id="linear-gradient-5" x1="12.91" y1="136.76" x2="647.52" y2="136.76" gradientUnits="userSpaceOnUse"><stop offset="0.01" stop-color="#e89d43"/><stop offset="0.18" stop-color="#e58642"/><stop offset="0.54" stop-color="#dc4c3f"/><stop offset="0.76" stop-color="#d7263d"/></linearGradient><linearGradient id="linear-gradient-6" x1="404.92" y1="720.16" x2="985.46" y2="720.16" gradientUnits="userSpaceOnUse"><stop offset="0.01" stop-color="#e89d43"/><stop offset="0.45" stop-color="#d7263d"/></linearGradient><linearGradient id="BLUE_GRADIENT" x1="532.01" y1="566.36" x2="679.43" y2="566.36" gradientUnits="userSpaceOnUse"><stop offset="0.08" stop-color="#55c9fc"/><stop offset="0.55" stop-color="#0095da"/></linearGradient></defs><path class="cls-1" d="M591.71,240.12V417.79H375.28A38.23,38.23,0,0,0,337.05,456V642H68.73V240.12L330.22,64.53Z" transform="translate(-2.01 -1.67)"/><path class="cls-2" d="M166.79,426.44H286.64V642H166.79Z" transform="translate(-2.01 -1.67)"/><path class="cls-3" d="M362.9,329.45H297.53a32.5,32.5,0,0,1-32.68-32.33V232.47a32.5,32.5,0,0,1,32.68-32.33H362.9a32.5,32.5,0,0,1,32.69,32.33v64.65A32.5,32.5,0,0,1,362.9,329.45Z" transform="translate(-2.01 -1.67)"/><path class="cls-4" d="M123.21,512.66c0,38.69-24.4,64.66-54.48,64.66s-54.48-26-54.48-64.66c0-25.26,23.22-86.43,39.35-125.86,5.51-13.48,24.76-13.48,30.27,0C100,426.23,123.21,487.4,123.21,512.66Z" transform="translate(-2.01 -1.67)"/><path class="cls-5" d="M623.05,261.08,330.22,64.53,37.38,261.08,12.91,225.41l317.31-213,317.3,213Z" transform="translate(-2.01 -1.67)"/><path class="cls-6" d="M653.64,216.48,336.34,3.53a11,11,0,0,0-12.23,0L6.79,216.49a10.71,10.71,0,0,0-2.9,15l24.47,35.68a10.87,10.87,0,0,0,7,4.54A11,11,0,0,0,43.5,270l14.33-9.63V368.2A26.9,26.9,0,0,0,43.5,382.76C25.18,427.54,3.36,486.41,3.36,512.66c0,38.69,22.77,68.73,54.47,74.39V631.2H3.36v21.55H337.05V631.2H297.53V426.44a10.82,10.82,0,0,0-10.89-10.77H166.79a10.82,10.82,0,0,0-10.9,10.77V631.2H79.63V587.05c31.7-5.66,54.47-35.7,54.47-74.39,0-26.25-21.82-85.12-40.14-129.9A26.9,26.9,0,0,0,79.63,368.2V245.75L330.22,77.56,580.81,245.75v172H602.6V260.38L616.93,270a11,11,0,0,0,15.13-2.87l24.47-35.68A10.7,10.7,0,0,0,653.64,216.48ZM336.34,55.62a11,11,0,0,0-12.25,0L40.28,246.12,28.05,228.26,330.22,25.46l302.17,202.8-12.24,17.85ZM68.73,566.54c-25.24,0-43.58-22.66-43.58-53.88,0-17.51,14-61.91,38.54-121.82a5.45,5.45,0,0,1,10.08,0c24.5,59.91,38.54,104.31,38.54,121.82C112.31,543.88,94,566.54,68.73,566.54Zm109-129.32h98.06v194H177.68Z" transform="translate(-2.01 -1.67)"/><path class="cls-6" d="M362.9,189.36H297.53c-24,0-43.58,19.33-43.58,43.11v64.65c0,23.78,19.55,43.11,43.58,43.11H362.9c24,0,43.59-19.33,43.59-43.11V232.47C406.49,208.69,386.94,189.36,362.9,189.36ZM275.74,297.12V275.57h43.58v43.11H297.53A21.7,21.7,0,0,1,275.74,297.12Zm21.79-86.21h21.79V254H275.74V232.47A21.7,21.7,0,0,1,297.53,210.91Zm43.58,64.66h43.58v21.55a21.7,21.7,0,0,1-21.79,21.56H341.11ZM384.69,254H341.11V210.91H362.9a21.7,21.7,0,0,1,21.79,21.56Z" transform="translate(-2.01 -1.67)"/><ellipse class="cls-6" cx="241.19" cy="532.83" rx="11.19" ry="10.07"/><path class="cls-7" d="M416,882.27H732.37c23.29,0,42.18,18.68,42.18,41.72v20.86c0,23-18.89,41.72-42.18,41.72H416c-23.29,0-42.18-18.68-42.18-41.72V924C373.83,901,392.72,882.27,416,882.27Z" transform="translate(-2.01 -1.67)"/><rect class="cls-7" x="424.55" y="776.29" width="305.81" height="104.3"/><path class="cls-8" d="M829.07,611.08l-96,95,1.08,1.07a86.6,86.6,0,0,0-54.55-12.65V644.57c.88-4.34-80.65-179.58-81.57-183.75,3.37-10-120.87-6.73-181.44-5.86l-4,.06h0a10,10,0,0,0-7.18,10V746.67A29.87,29.87,0,0,0,433.83,778h24.36V882.27H447.65A42,42,0,0,0,405.47,924c-3.05,30.93,6,61.27,42.18,62.58h326.9c23.29,0,42.18-18.68,42.18-41.72,3-30.93-6-61.28-42.18-62.58V778a77.23,77.23,0,0,0-11.78-42.52l.07.07,83.73-82.71h96.7V840.55l-94.91,146h94.91c22.52.46,42.62-19.17,42.18-41.72V611.08ZM679.64,778H669.1a10.49,10.49,0,0,0,10.54-10.43Z" transform="translate(-2.01 -1.67)"/><path class="cls-6" d="M774.55,892.7h-348a10.6,10.6,0,0,1-7.46-3.06,10.35,10.35,0,0,1-3.09-7.37V778a10.35,10.35,0,0,1,3.09-7.37,10.6,10.6,0,0,1,7.46-3.06h348a10.62,10.62,0,0,1,7.46,3.06,10.38,10.38,0,0,1,3.08,7.37V882.27a10.34,10.34,0,0,1-3.08,7.37A10.62,10.62,0,0,1,774.55,892.7ZM437.1,871.84H764V788.39H437.1Z" transform="translate(-2.01 -1.67)"/><path class="cls-7" d="M432.82,778H401.18a29.88,29.88,0,0,1-28.37-31.29V465.06a10,10,0,0,1,9.49-10.43h31.64a10,10,0,0,0-9.49,10.43V746.67A29.88,29.88,0,0,0,432.82,778Z" transform="translate(-2.01 -1.67)"/><path class="cls-9" d="M669.1,788.4H405.47a41.91,41.91,0,0,1-41.6-34.74,10.37,10.37,0,0,1,3.69-9.77,10.63,10.63,0,0,1,10.4-1.74,10.49,10.49,0,0,1,6.72,8.05,20.9,20.9,0,0,0,20.79,17.33H669.1V652.8H542.55a21,21,0,0,1-21.09-20.86V506.78a21,21,0,0,1,21.09-20.86h55.19L588.38,465l-204,.06v20.86h94.9a21,21,0,0,1,21.09,20.86V631.94a21,21,0,0,1-21.09,20.86h-94.9v15.65a10.55,10.55,0,0,1-21.09,0V642.37a10.37,10.37,0,0,1,3.08-7.38,10.63,10.63,0,0,1,7.46-3H479.28V506.78H373.83a10.6,10.6,0,0,1-7.46-3.06,10.39,10.39,0,0,1-3.09-7.37v-31.3a21,21,0,0,1,21.1-20.86h204a21.09,21.09,0,0,1,19.23,12.35l15.93,35.58a10.36,10.36,0,0,1-.8,9.91,10.59,10.59,0,0,1-8.84,4.75h-71.4V631.94H679.43a10.51,10.51,0,0,1,10.44,8.92,26.9,26.9,0,0,1,.32,3.7v123A21,21,0,0,1,669.1,788.4Z" transform="translate(-2.01 -1.67)"/><path class="cls-9" d="M373.83,720.6a10.57,10.57,0,0,1-7.49-3,12.15,12.15,0,0,1-2.22-3.44,10.38,10.38,0,0,1-.84-4,11,11,0,0,1,3.06-7.41,12.25,12.25,0,0,1,3.48-2.19,10.63,10.63,0,0,1,11.5,2.19,11,11,0,0,1,3.06,7.41,10.39,10.39,0,0,1-.85,4,12.12,12.12,0,0,1-2.21,3.44,10.56,10.56,0,0,1-7.49,3Z" transform="translate(-2.01 -1.67)"/><path class="cls-6" d="M669.1,788.4H405.47a41.91,41.91,0,0,1-41.6-34.74,10.37,10.37,0,0,1,3.69-9.77,10.63,10.63,0,0,1,10.4-1.74,10.49,10.49,0,0,1,6.72,8.05,20.9,20.9,0,0,0,20.79,17.33H669.1V652.8H542.55a21,21,0,0,1-21.09-20.86V506.78a21,21,0,0,1,21.09-20.86h55.19L588.38,465l-204,.06v20.86h94.9a21,21,0,0,1,21.09,20.86V631.94a21,21,0,0,1-21.09,20.86h-94.9v15.65a10.55,10.55,0,0,1-21.09,0V642.37a10.37,10.37,0,0,1,3.08-7.38,10.63,10.63,0,0,1,7.46-3H479.28V506.78H373.83a10.6,10.6,0,0,1-7.46-3.06,10.39,10.39,0,0,1-3.09-7.37v-31.3a21,21,0,0,1,21.1-20.86h204a21.09,21.09,0,0,1,19.23,12.35l15.93,35.58a10.36,10.36,0,0,1-.8,9.91,10.59,10.59,0,0,1-8.84,4.75h-71.4V631.94H679.43a10.51,10.51,0,0,1,10.44,8.92,26.9,26.9,0,0,1,.32,3.7v123A21,21,0,0,1,669.1,788.4Z" transform="translate(-2.01 -1.67)"/><path class="cls-6" d="M373.83,720.6a10.57,10.57,0,0,1-7.49-3,12.15,12.15,0,0,1-2.22-3.44,10.38,10.38,0,0,1-.84-4,11,11,0,0,1,3.06-7.41,12.25,12.25,0,0,1,3.48-2.19,10.63,10.63,0,0,1,11.5,2.19,11,11,0,0,1,3.06,7.41,10.39,10.39,0,0,1-.85,4,12.12,12.12,0,0,1-2.21,3.44,10.56,10.56,0,0,1-7.49,3Z" transform="translate(-2.01 -1.67)"/><path class="cls-10" d="M489.83,503.78V628.94c0,5.74-3,10.43-6.71,10.43H454.93c-.88,1.85-2.06,3-3.37,3H403.43v-146H416v-3h67.11C486.81,493.35,489.83,498,489.83,503.78Z" transform="translate(-2.01 -1.67)"/><path class="cls-11" d="M679.43,639.37H542.55A10.53,10.53,0,0,1,532,628.94V503.78a10.44,10.44,0,0,1,.91-4.22,10.58,10.58,0,0,1,9.63-6.21h71.5l64.64,144A13.85,13.85,0,0,1,679.43,639.37Z" transform="translate(-2.01 -1.67)"/><path class="cls-6" d="M479.28,652.8H373.83a10.63,10.63,0,0,1-7.46-3,10.42,10.42,0,0,1-3.09-7.38v-146a10.38,10.38,0,0,1,3.09-7.38,10.59,10.59,0,0,1,7.46-3.05H479.28a21,21,0,0,1,21.09,20.86V631.94a21,21,0,0,1-21.09,20.86Zm-94.9-20.86h94.9V506.81l-94.9,0Z" transform="translate(-2.01 -1.67)"/><path class="cls-6" d="M679.43,652.8H542.55a21,21,0,0,1-21.09-20.86V506.78a21,21,0,0,1,21.09-20.86h71.5a10.55,10.55,0,0,1,9.64,6.2l64.64,144a21.29,21.29,0,0,1,1,2.65,10.65,10.65,0,0,1-9.92,14Zm-136.88-146V631.94H663.32L607.19,506.78Z" transform="translate(-2.01 -1.67)"/><path class="cls-6" d="M679.64,652.8h-.21a10.55,10.55,0,1,1,.21,0Z" transform="translate(-2.01 -1.67)"/><ellipse class="cls-12" cx="435.09" cy="932.75" rx="21.09" ry="20.86"/><ellipse class="cls-12" cx="751.45" cy="932.75" rx="21.09" ry="20.86"/><path class="cls-6" d="M437.1,965.71a31.29,31.29,0,1,1,31.64-31.29,31.46,31.46,0,0,1-31.64,31.29Zm0-41.72a10.43,10.43,0,1,0,10.55,10.43A10.49,10.49,0,0,0,437.1,924Z" transform="translate(-2.01 -1.67)"/><path class="cls-6" d="M753.46,965.71a31.29,31.29,0,1,1,31.63-31.29,31.47,31.47,0,0,1-31.63,31.29Zm0-41.72A10.43,10.43,0,1,0,764,934.42,10.49,10.49,0,0,0,753.46,924Z" transform="translate(-2.01 -1.67)"/><path class="cls-6" d="M637.46,892.7H532a10.6,10.6,0,0,1-7.46-3.06,10.35,10.35,0,0,1-3.09-7.37V778a10.35,10.35,0,0,1,3.09-7.37,10.6,10.6,0,0,1,7.46-3.06H637.46a10.6,10.6,0,0,1,7.46,3.06A10.35,10.35,0,0,1,648,778V882.27a10.35,10.35,0,0,1-3.09,7.37A10.6,10.6,0,0,1,637.46,892.7Zm-94.91-20.86h84.37V788.39H542.55Z" transform="translate(-2.01 -1.67)"/><path class="cls-6" d="M510.92,684.09a10.63,10.63,0,0,1-7.46-3.05,10.38,10.38,0,0,1-3.09-7.38V663.23a10.55,10.55,0,0,1,21.09,0v10.43a10.38,10.38,0,0,1-3.09,7.38,10.59,10.59,0,0,1-7.45,3.05Z" transform="translate(-2.01 -1.67)"/><path class="cls-6" d="M510.92,736.24a10.59,10.59,0,0,1-7.46-3,10.38,10.38,0,0,1-3.09-7.38V715.38a10.55,10.55,0,0,1,21.09,0v10.43a10.38,10.38,0,0,1-3.09,7.38,10.55,10.55,0,0,1-7.45,3Z" transform="translate(-2.01 -1.67)"/><path class="cls-6" d="M510.92,788.4a10.6,10.6,0,0,1-7.46-3.06,10.38,10.38,0,0,1-3.09-7.38V767.53a10.55,10.55,0,0,1,21.09,0V778a10.38,10.38,0,0,1-3.09,7.38,10.56,10.56,0,0,1-7.45,3.06Z" transform="translate(-2.01 -1.67)"/><path class="cls-6" d="M774.55,788.4H679.64a10.62,10.62,0,0,1-7.46-3.06A10.41,10.41,0,0,1,669.1,778V694.52a10.38,10.38,0,0,1,3.08-7.38,10.63,10.63,0,0,1,7.46-3h10.55c52.39.06,94.84,42,94.9,93.87a10.41,10.41,0,0,1-3.08,7.38,10.62,10.62,0,0,1-7.46,3.06Zm-84.36-20.87h73.06C758,731.64,726.86,705,690.19,705Z" transform="translate(-2.01 -1.67)"/><path class="cls-6" d="M943.27,997H848.36a10.58,10.58,0,0,1-9.26-5.43,10.35,10.35,0,0,1,.39-10.64l94.91-146a10.58,10.58,0,0,1,8.87-4.79h42.18a10.6,10.6,0,0,1,7.46,3.06,10.36,10.36,0,0,1,3.09,7.38v104.3C996,973.64,972.38,997,943.27,997Zm-75.59-20.86h75.59a31.51,31.51,0,0,0,31.64-31.29V851H949Z" transform="translate(-2.01 -1.67)"/><path class="cls-6" d="M985.45,851H943.27a10.62,10.62,0,0,1-7.46-3.06,10.38,10.38,0,0,1-3.08-7.37V663.23H850.94L770.3,742.9a10.65,10.65,0,0,1-14.9,0,10.37,10.37,0,0,1,0-14.74l83.72-82.7a10.63,10.63,0,0,1,7.45-3h96.7a10.63,10.63,0,0,1,7.46,3,10.38,10.38,0,0,1,3.09,7.38V830.12h21.09V621.51H833.44l-92.88,92a10.63,10.63,0,0,1-14.87,0,10.36,10.36,0,0,1-.05-14.71l96-95a10.58,10.58,0,0,1,7.46-3.06H985.45a10.6,10.6,0,0,1,7.46,3.06,10.35,10.35,0,0,1,3.09,7.37V840.55a10.35,10.35,0,0,1-3.09,7.37A10.6,10.6,0,0,1,985.45,851Z" transform="translate(-2.01 -1.67)"/><path class="cls-6" d="M943.27,663.23a10.54,10.54,0,0,1-9.74-6.44,10.34,10.34,0,0,1,2.29-11.36L978,603.71a10.63,10.63,0,0,1,14.84.06,10.36,10.36,0,0,1,.07,14.69l-42.18,41.72a10.63,10.63,0,0,1-7.46,3.05Z" transform="translate(-2.01 -1.67)"/><path class="cls-6" d="M848.38,663.23a10.55,10.55,0,0,1-9.45-5.77l-20.46-40.57A10.37,10.37,0,0,1,823.23,603a10.61,10.61,0,0,1,14.12,4.62l20.45,40.57a10.34,10.34,0,0,1,.57,8,10.58,10.58,0,0,1-10,7.12Z" transform="translate(-2.01 -1.67)"/><path class="cls-6" d="M637.46,819.69H532a10.43,10.43,0,1,1,0-20.86H637.46a10.43,10.43,0,1,1,0,20.86Z" transform="translate(-2.01 -1.67)"/><path class="cls-6" d="M637.46,861.41H532a10.43,10.43,0,1,1,0-20.86H637.46a10.43,10.43,0,1,1,0,20.86Z" transform="translate(-2.01 -1.67)"/><path class="cls-6" d="M416,558.93a10.54,10.54,0,0,1-9.74-6.44,10.35,10.35,0,0,1,2.29-11.37l10.54-10.43a10.63,10.63,0,0,1,14.85.07,10.34,10.34,0,0,1,.06,14.68l-10.54,10.43a10.6,10.6,0,0,1-7.46,3.06Z" transform="translate(-2.01 -1.67)"/><path class="cls-6" d="M416,611.08a10.54,10.54,0,0,1-9.74-6.44,10.33,10.33,0,0,1,2.29-11.36L440.19,562a10.63,10.63,0,0,1,14.85.06,10.34,10.34,0,0,1,.06,14.68L423.47,608a10.6,10.6,0,0,1-7.46,3.06Z" transform="translate(-2.01 -1.67)"/><path class="cls-6" d="M774.55,997H416c-29.1,0-52.69-23.36-52.72-52.15V924c0-28.79,23.62-52.12,52.72-52.15H774.55c29.1,0,52.69,23.36,52.72,52.15v20.86c0,28.79-23.62,52.12-52.72,52.15ZM416,892.7A31.49,31.49,0,0,0,384.38,924v20.86A31.49,31.49,0,0,0,416,976.14H774.55a31.49,31.49,0,0,0,31.63-31.29V924a31.49,31.49,0,0,0-31.63-31.29Z" transform="translate(-2.01 -1.67)"/></svg>