<?xml version="1.0" encoding="utf-8"?>
<!-- Generator: Adobe Illustrator 24.2.3, SVG Export Plug-In . SVG Version: 6.00 Build 0)  -->
<svg version="1.1" id="Layer_1" xmlns="http://www.w3.org/2000/svg" xmlns:xlink="http://www.w3.org/1999/xlink" x="0px" y="0px"
	 viewBox="0 0 1000 1000" style="enable-background:new 0 0 1000 1000;" xml:space="preserve">
<style type="text/css">
	.st0{fill:url(#SVGID_1_);}
	.st1{fill:url(#SVGID_2_);}
</style>
<linearGradient id="SVGID_1_" gradientUnits="userSpaceOnUse" x1="162.4052" y1="501.01" x2="841.0908" y2="501.01">
	<stop  offset="5.348757e-03" style="stop-color:#E89D43"/>
	<stop  offset="0.8668" style="stop-color:#D7263D"/>
</linearGradient>
<path class="st0" d="M841.1,983.7c-2.2-46-17.3-94.3-113-103.3c-33.8-3.2-47.5-22.7-62-43.4c-12.5-17.8-25.4-36.2-50.1-41.8
	c-30.1-6.9-51,2.2-71.1,11c-8.9,3.9-18,7.9-28.5,10.9V570.3l65.4-63.5c19.7-0.1,121.7-3.9,187.1-69.3
	c71.2-71.2,69.4-185.5,69.3-190.3c-0.2-7.8-6.5-14.1-14.3-14.3c-0.8,0-19.4-0.4-46.1,3.6c-18.5,2.8-14.3,31.6,4.3,28.9
	c10.4-1.5,19.5-2.4,26.5-2.8c-2,31.4-11.8,105.8-60.3,154.3c-39.7,39.7-97.2,53.5-133.8,58.3l114.3-111.1c13.4-13-6.9-34-20.3-20.9
	L596.7,451.6c5.3-36.7,19.5-90.7,57.6-128.8c12.8-12.8,28.5-23.9,46.6-33c16.8-8.4,3.8-34.5-13-26.1c-20.9,10.4-39.1,23.4-54.2,38.4
	c-60.1,60.1-68.2,151.1-69.2,180.8l-48.1,46.7V369.6c17.8-18.6,81-90.7,81-179C597.4,90,515.4,10.4,511.9,7
	c-5.6-5.4-14.5-5.4-20.2,0c-3.5,3.3-85.5,82.9-85.5,183.6c0.1,16.7,2.2,33.3,6.4,49.4c4.6,18.2,32.9,11,28.3-7.2
	c-3.6-13.8-5.4-28-5.5-42.2c0-68.3,45.7-128,66.5-151.7c20.8,23.5,66.4,83.2,66.4,151.7c0,54.9-29.5,104.2-51.9,133.8V162.1
	c0-18.7-29.2-18.8-29.2,0v162.4c-4.5-5.9-9.3-12.6-14.1-20.1c-10.1-15.8-34.7,0-24.5,15.8c11.3,17.6,24.2,34.2,38.6,49.4v303.7
	L443,627.8c0-4-0.2-11.3-1-21c-3.2-38.4-16.1-113.8-68.3-166c-71.2-71.2-185.5-69.4-190.3-69.3c-7.8,0.2-14.1,6.5-14.3,14.3
	c-0.1,4.8-1.9,119.1,69.3,190.3c60.1,60.1,151.1,68.2,180.8,69.2l0.8,0.8l67.3,69.3v106.3c-12.8-0.9-23.3-7.8-36.2-16.2
	c-27.6-18-55.9-28.5-88.9-18c-30.3,9.6-45.8,34.4-58.4,61.8c-10.9,23.8-18.1,37.3-38.6,39.4c-38.2,4-66.5,17.2-84.2,39.2
	c-21.7,27-18.5,57.1-18.3,58.4c0.8,7.4,7.1,12.9,14.5,12.9h95.1c18.7,0,18.8-29.2,0-29.2h-79.6c1.7-8.7,5.5-16.9,11.1-23.9
	c12.6-15.7,34.3-25.3,64.5-28.4c38.1-4,51.4-32.9,62-56.3c9-19.6,18.6-39,40.5-46.1c24.6-8,44,1.3,64.4,14.6
	c17,11.1,36.3,23.7,63.3,20.6c25-2.9,42.6-10.6,58.2-17.4c18.7-8.2,32.1-14.1,53-9.3c13.1,3,21,13.4,32.7,30.1
	c16,22.8,36,51.2,83.2,55.7c66.2,6.3,81.2,30.3,85.3,60.4H352c-18.7,0-18.8,29.2,0,29.2h474.5c8.1-0.1,14.7-6.7,14.6-14.8
	C841.1,984,841.1,983.9,841.1,983.7z M279.3,501.2l108.5,111.7c-36.7-5.4-90.8-19.7-128.8-57.6c-48.3-48.3-58.2-122.8-60.3-154.3
	c31.4,2,105.9,12,154.2,60.3c39.7,39.7,53.5,97.2,58.3,133.8L300.2,480.9c-5.6-5.8-14.8-5.9-20.6-0.3
	C273.8,486.2,273.7,495.4,279.3,501.2z"/>
<linearGradient id="SVGID_2_" gradientUnits="userSpaceOnUse" x1="186" y1="896.4843" x2="824.5693" y2="896.4843">
	<stop  offset="5.348757e-03" style="stop-color:#E89D43"/>
	<stop  offset="0.8668" style="stop-color:#D7263D"/>
</linearGradient>
<path class="st1" d="M191,999c213.7,0,412.3,0,626,0c4.9-10.1,10.3-25.5,6-41c-6.6-23.8-32.5-34.5-68-48.6
	c-51.8-20.6-62.7-11.8-84-30.2c-28.1-24.3-18.3-47.6-41-61.5c-32.3-19.8-59.1,23.1-117,19.4c-59.2-3.8-94-42.1-114-43.2
	c-32.7-1.8-80,63-115,102c-19.3,21.5-74.6,29.8-98,40L191,999z"/>
</svg>
